<svg version="1.2" baseProfile="tiny" xmlns="http://www.w3.org/2000/svg" viewBox="0 0 360 75" preserveAspectRatio="xMinYMin meet"><path fill="#7B7471" d="M114.2 30.1c-.7-1-1.7-1.7-2.8-2.2-1.1-.5-2.3-.8-3.5-.8-1.5 0-2.8.3-4 .8-1.2.6-2.2 1.3-3 2.3-.8 1-1.5 2.1-2 3.4-.5 1.3-.7 2.7-.7 4.1 0 1.4.2 2.7.7 3.9.4 1.2 1.1 2.3 1.9 3.2.8.9 1.8 1.7 3 2.2 1.2.5 2.6.8 4.1.8 1.5 0 2.8-.3 3.9-.9 1.1-.6 2.1-1.5 2.9-2.6l3 2.2c-.2.3-.5.7-1 1.2s-1.1 1-1.9 1.5c-.8.5-1.8.9-2.9 1.3-1.1.4-2.5.6-3.9.6-2.1 0-3.9-.4-5.6-1.2-1.7-.8-3.1-1.8-4.2-3.1-1.2-1.3-2-2.7-2.7-4.3-.6-1.6-.9-3.2-.9-4.9 0-2 .3-3.9 1-5.6.7-1.7 1.6-3.2 2.8-4.4 1.2-1.2 2.6-2.2 4.3-2.9 1.7-.7 3.5-1 5.5-1 1.7 0 3.4.3 5 1s3 1.7 4.1 3l-3.1 2.4zM126.9 24.5h3.5v10.8h13.5V24.5h3.5v26h-3.5V38.6h-13.5v11.9h-3.5v-26zM170.9 51.1c-2 0-3.8-.3-5.5-1-1.7-.7-3.1-1.7-4.3-2.9-1.2-1.2-2.1-2.7-2.8-4.3-.7-1.7-1-3.5-1-5.4 0-1.9.3-3.7 1-5.4.7-1.7 1.6-3.1 2.8-4.3 1.2-1.2 2.6-2.2 4.3-2.9 1.7-.7 3.5-1 5.5-1s3.8.3 5.5 1c1.7.7 3.1 1.7 4.3 2.9 1.2 1.2 2.1 2.7 2.8 4.3.7 1.7 1 3.5 1 5.4 0 1.9-.3 3.7-1 5.4-.7 1.7-1.6 3.1-2.8 4.3-1.2 1.2-2.6 2.2-4.3 2.9-1.7.7-3.5 1-5.5 1zm0-3.3c1.5 0 2.8-.3 4-.8 1.2-.6 2.2-1.3 3.1-2.2.9-.9 1.5-2 2-3.3.5-1.3.7-2.6.7-4s-.2-2.8-.7-4c-.5-1.3-1.1-2.4-2-3.3-.9-.9-1.9-1.7-3.1-2.2-1.2-.6-2.5-.8-4-.8s-2.8.3-4 .8c-1.2.6-2.2 1.3-3.1 2.2-.9.9-1.5 2-2 3.3-.5 1.3-.7 2.6-.7 4s.2 2.8.7 4c.5 1.3 1.1 2.4 2 3.3.9.9 1.9 1.7 3.1 2.2 1.2.6 2.5.8 4 .8zM206.3 51.1c-2 0-3.8-.3-5.5-1-1.7-.7-3.1-1.7-4.3-2.9-1.2-1.2-2.1-2.7-2.8-4.3-.7-1.7-1-3.5-1-5.4 0-1.9.3-3.7 1-5.4.7-1.7 1.6-3.1 2.8-4.3 1.2-1.2 2.6-2.2 4.3-2.9 1.7-.7 3.5-1 5.5-1s3.8.3 5.5 1c1.7.7 3.1 1.7 4.3 2.9 1.2 1.2 2.1 2.7 2.8 4.3.7 1.7 1 3.5 1 5.4 0 1.9-.3 3.7-1 5.4-.7 1.7-1.6 3.1-2.8 4.3-1.2 1.2-2.6 2.2-4.3 2.9-1.7.7-3.5 1-5.5 1zm0-3.3c1.5 0 2.8-.3 4-.8 1.2-.6 2.2-1.3 3.1-2.2.9-.9 1.5-2 2-3.3.5-1.3.7-2.6.7-4s-.2-2.8-.7-4c-.5-1.3-1.1-2.4-2-3.3-.9-.9-1.9-1.7-3.1-2.2-1.2-.6-2.5-.8-4-.8s-2.8.3-4 .8c-1.2.6-2.2 1.3-3.1 2.2-.9.9-1.5 2-2 3.3-.5 1.3-.7 2.6-.7 4s.2 2.8.7 4c.5 1.3 1.1 2.4 2 3.3.9.9 1.9 1.7 3.1 2.2 1.2.6 2.5.8 4 .8zM230.6 45.1c.6 1 1.4 1.7 2.4 2.1 1 .5 2 .7 3.1.7.6 0 1.2-.1 1.8-.3.6-.2 1.2-.5 1.7-.8.5-.4.9-.8 1.2-1.4.3-.5.5-1.2.5-1.9 0-1-.3-1.8-1-2.3-.6-.5-1.4-1-2.4-1.3-.9-.4-2-.7-3.1-1s-2.1-.8-3.1-1.4c-.9-.6-1.7-1.4-2.4-2.4-.6-1-1-2.3-1-4 0-.8.2-1.6.5-2.4.3-.9.8-1.6 1.6-2.3.7-.7 1.6-1.3 2.7-1.8s2.5-.7 4-.7c1.4 0 2.8.2 4.1.6 1.3.4 2.4 1.2 3.4 2.4l-2.9 2.6c-.4-.7-1.1-1.2-1.9-1.7-.8-.4-1.7-.6-2.8-.6-1 0-1.8.1-2.4.4-.6.3-1.2.6-1.6 1-.4.4-.7.8-.8 1.3-.2.5-.2.9-.2 1.3 0 1.1.3 1.9 1 2.5.6.6 1.4 1.1 2.4 1.4.9.4 2 .7 3.1 1 1.1.3 2.1.7 3.1 1.2.9.5 1.7 1.2 2.4 2.1.6.9 1 2.1 1 3.7 0 1.2-.2 2.4-.7 3.4-.5 1-1.1 1.8-1.9 2.5-.8.7-1.8 1.2-2.9 1.6-1.1.4-2.3.6-3.5.6-1.7 0-3.2-.3-4.7-.9-1.5-.6-2.7-1.5-3.6-2.7l2.9-2.5zM255.2 24.5H272v3.3h-13.2v7.7H271v3.3h-12.3v8.3h13.9v3.3h-17.4V24.5z"/><path fill="#8BC240" d="M278.9 24.5h4.1l7.6 21.1h.1l7.9-21.1h3.9l-10.2 26H289l-10.1-26zM310.5 24.5h16.8v3.3h-13.2v7.7h12.3v3.3h-12.3v8.3H328v3.3h-17.4V24.5zM360 36v12.8c-.6.4-1.4.7-2.2 1-.8.3-1.6.5-2.5.8-.9.2-1.7.4-2.6.5-.9.1-1.7.1-2.5.1-2.2 0-4.2-.4-5.9-1.1-1.7-.7-3.2-1.7-4.4-3-1.2-1.2-2.1-2.7-2.7-4.3s-.9-3.4-.9-5.2c0-1.9.3-3.7 1-5.4.7-1.7 1.6-3.1 2.8-4.3 1.2-1.2 2.6-2.2 4.3-2.9 1.7-.7 3.5-1 5.5-1 2.4 0 4.4.3 5.9.9 1.5.6 2.8 1.4 3.8 2.5l-2.5 2.7c-1.1-1-2.2-1.7-3.4-2.1-1.2-.4-2.5-.6-3.8-.6-1.5 0-2.8.3-4 .8-1.2.6-2.2 1.3-3.1 2.2-.9.9-1.5 2-2 3.3-.5 1.3-.7 2.6-.7 4 0 1.5.3 2.8.8 4.1.5 1.3 1.2 2.4 2.1 3.3.9.9 2 1.7 3.2 2.2 1.2.5 2.6.8 4 .8 1.2 0 2.4-.1 3.5-.3 1.1-.2 2.1-.6 2.8-1v-7.2h-5.8V36h9.3zM50.6 25.3c-5 .6-9 2.3-12 4.7 1.4 3.3 2 7 2 11 1.8-2.7 3.9-5.1 6.4-7.2.3-.3.8-.2 1.1.1.2.3.2.7-.1 1-3.2 3-5.7 6.5-7.6 10.5-.4 2.9-1 5.9-2.1 9l.3 1.2c7.9-1.7 20.8-6.8 21.2-22.4.1-4.9 6.3-6.1 6.3-6.1s-6.8-2.8-15.5-1.8z"/><path fill="#74AA42" d="M28 32.9c.4-.3 1-.2 1.3.3 3.5 5.4 6.1 11.2 7.9 17.2 3.8-15-1-29.1-18.2-33.8-3.9-1.1-7.7-1.4-10.7-1.4-4.9 0-8.2.9-8.2.9s6.4 1 6.4 8.4c.1 23.2 20.7 30.6 26.8 32.3 0 0 1.2 7.8 1.5 11.5.1 1.1.8 1.6 1.7 1.6 1.7 0 1.6-2.3 1.6-2.3-1.3-12-4.1-23.2-10.2-33.5-.4-.4-.3-.9.1-1.2z"/><path fill="#8BC240" d="M19.8 13.7c1 .3 2 .6 2.9.9 5.3-4.5 12.1-7.2 19.5-7.2C57 7.3 69.5 17.9 72 32.5c.2 1 1.1 1.7 2.1 1.5 1-.2 1.7-1.1 1.5-2.1C72.9 15.5 58.8 3.7 42.2 3.7c-9.2 0-17.6 3.7-23.7 9.7.5 0 .9.1 1.3.3zM74 41.5c-1-.2-2 .5-2.1 1.5-2.6 14.3-15.1 24.7-29.7 24.7-11.9 0-22.2-6.9-27.1-17-2.4-2.1-4.5-4.4-6.1-6.9 2.9 15.7 16.7 27.6 33.3 27.6 16.4 0 30.4-11.7 33.3-27.7.1-1.1-.6-2-1.6-2.2z"/></svg>